<?xml version="1.0" standalone="no"?><!DOCTYPE svg PUBLIC "-//W3C//DTD SVG 1.1//EN" "http://www.w3.org/Graphics/SVG/1.1/DTD/svg11.dtd"><svg t="1744176583504" class="icon" viewBox="0 0 1024 1024" version="1.1" xmlns="http://www.w3.org/2000/svg" p-id="9417" xmlns:xlink="http://www.w3.org/1999/xlink" width="200" height="200"><path d="M1015.384774 836.949572L911.083857 506.225005a71.419259 71.419259 0 0 0-68.136293-49.914482h-80.813161c-52.914451 85.623111-126.823683 155.910382-176.058172 202.599897l-8.488912 8.035917a98.922973 98.922973 0 0 1-136.555582-0.112999l-9.959897-9.451902c-51.894461-49.235489-123.936713-117.824777-175.436179-201.070913h-86.415103c-31.464673 0-59.251385 20.599786-68.36329 50.706474L3.182282 829.818646a71.419259 71.419259 0 0 0 85.679111 89.981066l220.256713-55.063429c20.939783-5.206946 43.235551-0.679993 60.439373 12.393872l174.700186 132.368626a71.169261 71.169261 0 0 0 61.118366 12.166873l359.926263-94.056023a71.419259 71.419259 0 0 0 50.08248-90.54706z" fill="#cfc506" p-id="9418"></path><path d="M487.834251 617.597849a31.125677 31.125677 0 0 0 43.009553 0.056999c77.418196-73.569236 227.782635-210.351816 227.782636-362.980232a249.344412 249.344412 0 1 0-498.574825 0c0 153.081411 148.440459 287.373017 227.782636 362.923233z m21.504777-456.58326a93.603028 93.603028 0 1 1 2.546973 187.206056 93.603028 93.603028 0 0 1-2.546973-187.206056z" fill="#cfc506" p-id="9419"></path></svg>